<svg xmlns="http://www.w3.org/2000/svg" xmlns:xlink="http://www.w3.org/1999/xlink" version="1.1" x="0px" y="0px" viewBox="0 0 100 125" enable-background="new 0 0 100 100" xml:space="preserve"><rect x="39.903" y="86.529" fill="#000000" width="21.915" height="9.002"/><path fill="#000000" d="M77.728,58.686c-0.795-4.839-6.75-3.861-6.75-3.861c-0.342,0.056-0.591,0.309-0.548,0.56l0.472,2.871  l-2.284,0.376c-0.545-3.831-1.208-8.705-1.85-13.983l2.628-0.266l0.294,2.894c0.024,0.254,0.328,0.434,0.674,0.4  c0,0,6.005-0.609,5.512-5.488c-0.495-4.881-6.5-4.272-6.5-4.272c-0.345,0.034-0.606,0.271-0.581,0.524l0.293,2.896l-2.681,0.271  c-0.533-4.584-1.03-9.36-1.404-13.934l3.049-0.113l0.107,2.907c0.01,0.255,0.302,0.454,0.646,0.44c0,0,6.033-0.223,5.851-5.124  c-0.18-4.9-6.213-4.679-6.213-4.679c-0.346,0.014-0.621,0.232-0.612,0.486l0.107,2.908l-3.166,0.117  c-0.276-3.894-0.445-7.566-0.445-10.74c0-4.424-3.009-4.646-7.86-5.707c-4.853-1.061-4.51-2.637-5.605-2.637  c-1.095,0-0.752,1.576-5.604,2.637c-4.851,1.061-7.861,1.283-7.861,5.707c0,3.177-0.169,6.854-0.444,10.753l-3.529-0.13l0.108-2.908  c0.008-0.254-0.268-0.473-0.613-0.486c0,0-6.032-0.222-6.214,4.679c-0.181,4.901,5.851,5.124,5.851,5.124  c0.347,0.014,0.638-0.186,0.647-0.44l0.107-2.907l3.411,0.127c-0.376,4.581-0.874,9.365-1.407,13.956l-3.04-0.307l0.293-2.896  c0.025-0.254-0.236-0.49-0.58-0.524c0,0-6.005-0.608-6.5,4.272c-0.494,4.879,5.512,5.488,5.512,5.488  c0.345,0.033,0.648-0.146,0.674-0.4l0.293-2.894l2.986,0.303c-0.643,5.29-1.308,10.174-1.854,14.003l-2.638-0.433l0.472-2.871  c0.041-0.251-0.206-0.504-0.548-0.56c0,0-5.956-0.978-6.75,3.861c-0.795,4.84,5.161,5.818,5.161,5.818  c0.342,0.055,0.655-0.104,0.696-0.356l0.472-2.869l2.696,0.441c-0.464,3.156-0.77,5.08-0.77,5.08  c-0.255,1.335,0.304,1.387,0.534,1.51c9.554,5.068,7.481,15.528,7.481,15.528h21.915c0,0-2.073-10.46,7.48-15.528  c0.232-0.123,0.789-0.175,0.535-1.51c0,0-0.309-1.947-0.777-5.138l2.341-0.384l0.471,2.869c0.043,0.253,0.355,0.411,0.696,0.356  C72.564,64.504,78.522,63.525,77.728,58.686z M40.237,63.873c-1.162,0-2.105-0.941-2.105-2.104c0-1.16,0.943-2.104,2.105-2.104  c1.16,0,2.106,0.944,2.106,2.104C42.344,62.932,41.397,63.873,40.237,63.873z M42.583,45.869c-1.164,0-2.107-0.942-2.107-2.104  s0.943-2.106,2.107-2.106c1.16,0,2.105,0.945,2.105,2.106S43.743,45.869,42.583,45.869z M43.986,28.109  c-1.162,0-2.106-0.941-2.106-2.104s0.944-2.105,2.106-2.105c1.16,0,2.106,0.942,2.106,2.105S45.146,28.109,43.986,28.109z   M55.878,26.005c0-1.163,0.945-2.105,2.106-2.105c1.162,0,2.105,0.942,2.105,2.105s-0.943,2.104-2.105,2.104  C56.823,28.109,55.878,27.168,55.878,26.005z M57.282,43.766c0-1.161,0.945-2.106,2.106-2.106c1.162,0,2.104,0.945,2.104,2.106  s-0.942,2.104-2.104,2.104C58.228,45.869,57.282,44.927,57.282,43.766z M61.732,63.873c-1.159,0-2.106-0.941-2.106-2.104  c0-1.16,0.947-2.104,2.106-2.104c1.162,0,2.106,0.944,2.106,2.104C63.839,62.932,62.895,63.873,61.732,63.873z"/><text x="0" y="115" fill="#000000" font-size="5px" font-weight="bold" font-family="'Helvetica Neue', Helvetica, Arial-Unicode, Arial, Sans-serif">Created by David Lopez</text><text x="0" y="120" fill="#000000" font-size="5px" font-weight="bold" font-family="'Helvetica Neue', Helvetica, Arial-Unicode, Arial, Sans-serif">from the Noun Project</text></svg>