<svg xmlns="http://www.w3.org/2000/svg" viewBox="0 0 100 125"><path d="M39.903 86.529h21.915v9.002H39.903zm37.825-27.843c-.795-4.839-6.75-3.861-6.75-3.861-.342.056-.591.309-.548.56l.472 2.871-2.284.376a704.117 704.117 0 0 1-1.85-13.983l2.628-.266.294 2.894c.024.254.328.434.674.4 0 0 6.005-.609 5.512-5.488-.495-4.881-6.5-4.272-6.5-4.272-.345.034-.606.271-.581.524l.293 2.896-2.681.271c-.533-4.584-1.03-9.36-1.404-13.934l3.049-.113.107 2.907c.01.255.302.454.646.44 0 0 6.033-.223 5.851-5.124-.18-4.9-6.213-4.679-6.213-4.679-.346.014-.621.232-.612.486l.107 2.908-3.166.117c-.276-3.894-.445-7.566-.445-10.74 0-4.424-3.009-4.646-7.86-5.707-4.853-1.061-4.51-2.637-5.605-2.637-1.095 0-.752 1.576-5.604 2.637-4.851 1.061-7.861 1.283-7.861 5.707 0 3.177-.169 6.854-.444 10.753l-3.529-.13.108-2.908c.008-.254-.268-.473-.613-.486 0 0-6.032-.222-6.214 4.679-.181 4.901 5.851 5.124 5.851 5.124.347.014.638-.186.647-.44l.107-2.907 3.411.127a422.587 422.587 0 0 1-1.407 13.956l-3.04-.307.293-2.896c.025-.254-.236-.49-.58-.524 0 0-6.005-.608-6.5 4.272-.494 4.879 5.512 5.488 5.512 5.488.345.033.648-.146.674-.4l.293-2.894 2.986.303a691.495 691.495 0 0 1-1.854 14.003l-2.638-.433.472-2.871c.041-.251-.206-.504-.548-.56 0 0-5.956-.978-6.75 3.861-.795 4.84 5.161 5.818 5.161 5.818.342.055.655-.104.696-.356l.472-2.869 2.696.441c-.464 3.156-.77 5.08-.77 5.08-.255 1.335.304 1.387.534 1.51 9.554 5.068 7.481 15.528 7.481 15.528h21.915s-2.073-10.46 7.48-15.528c.232-.123.789-.175.535-1.51 0 0-.309-1.947-.777-5.138l2.341-.384.471 2.869c.043.253.355.411.696.356-.001.001 5.957-.978 5.163-5.817zm-37.491 5.187a2.104 2.104 0 1 1 0-4.208c1.16 0 2.106.944 2.106 2.104a2.106 2.106 0 0 1-2.106 2.104zm2.346-18.004a2.105 2.105 0 1 1-.003-4.21 2.105 2.105 0 0 1 .003 4.21zm1.403-17.76a2.105 2.105 0 1 1-.002-4.21 2.105 2.105 0 0 1 .002 4.21zm11.892-2.104a2.107 2.107 0 0 1 4.211 0 2.106 2.106 0 0 1-4.211 0zm1.404 17.761c0-1.161.945-2.106 2.106-2.106a2.105 2.105 0 1 1-2.106 2.106zm4.45 20.107a2.107 2.107 0 0 1-2.106-2.104 2.107 2.107 0 0 1 4.212 0 2.104 2.104 0 0 1-2.106 2.104z"/><text y="115" font-size="5" font-weight="bold" font-family="'Helvetica Neue', Helvetica, Arial-Unicode, Arial, Sans-serif">Created by David Lopez</text><text y="120" font-size="5" font-weight="bold" font-family="'Helvetica Neue', Helvetica, Arial-Unicode, Arial, Sans-serif">from the Noun Project</text></svg>